# Blender v2.62 (sub 0) OBJ File: ''
# www.blender.org
mtllib room1.mtl
o Mesh.001_Cube.002
v 3.997606 -1.251383 -3.997606
v -3.997606 -1.251383 -3.997606
v -3.997606 -1.251384 3.997606
v 3.997606 -1.251384 3.997606
v 3.997602 2.746222 3.997610
v 3.997606 2.746223 -3.997606
v -3.997606 2.746222 3.997606
v -3.997606 2.746223 -3.997606
vt 0.000000 0.000000
vt 1.000000 0.000000
vt 1.000000 1.000000
vt 0.000000 1.000000
vn -0.577349 0.577349 0.577349
vn -0.577349 0.577349 -0.577349
vn -0.707083 0.000000 -0.707083
vn -0.707083 0.000000 0.707083
vn 0.577349 0.577349 -0.577349
vn 0.707083 0.000000 -0.707083
vn 0.577349 0.577349 0.577349
vn 0.707083 0.000000 0.707083
usemtl _brick_wall_2.jpg.001_brick_wall_2.jpg.001
s 1
f 1/1/1 4/2/2 5/3/3
f 1/1/1 5/3/3 6/4/4
f 4/1/2 3/2/5 7/3/6
f 4/1/2 7/3/6 5/4/3
f 3/1/5 2/2/7 8/3/8
f 3/1/5 8/3/8 7/4/6
f 2/3/7 1/4/1 6/1/4
f 2/3/7 6/1/4 8/2/8
usemtl _brick_wall_2.jpg.001_brick_floor.jpg
f 1/1/1 2/2/7 3/3/5
f 1/1/1 3/3/5 4/4/2
