# Blender v2.62 (sub 0) OBJ File: 'room.blend'
# www.blender.org
mtllib room.mtl
o Cube
v 1.000000 -0.500000 -1.000000
v 1.000000 -0.500000 1.000000
v -1.000000 -0.500000 1.000000
v -1.000000 -0.500000 -1.000000
v 1.000000 0.500000 -1.000000
v 0.999999 0.500000 1.000001
v -1.000000 0.500000 1.000000
v -1.000000 0.500000 -1.000000
vt 0.000000 0.000000
vt 1.000000 0.000000
vt 1.000000 1.000000
vt 0.000000 1.000000
vn -1.000000 -0.000000 -0.000000
vn 0.000000 0.000000 -1.000000
vn 1.000000 0.000000 0.000000
vn -0.000000 -0.000000 1.000000
vn 0.000000 1.000000 0.000000
usemtl _brick_wall_2.jpg
s off
f 1/1/1 2/2/1 6/3/1
f 1/1/1 6/3/1 5/4/1
f 2/1/2 3/2/2 7/3/2
f 2/1/2 7/3/2 6/4/2
f 3/1/3 4/2/3 8/3/3
f 3/1/3 8/3/3 7/4/3
f 4/3/4 1/4/4 5/1/4
f 4/3/4 5/1/4 8/2/4
usemtl _floor_1.jpg
f 1/1/5 4/2/5 3/3/5
f 1/1/5 3/3/5 2/4/5
