# Blender v2.76 (sub 0) OBJ File: ''
# www.blender.org
mtllib room1.mtl
o Cube.002
v 3.997606 -1.251383 -3.997606
v -3.997606 -1.251383 -3.997606
v -3.997606 -1.251384 3.997606
v 3.997606 -1.251384 3.997606
v 3.997602 2.746222 3.997610
v 3.997606 2.746223 -3.997606
v -3.997606 2.746222 3.997606
v -3.997606 2.746223 -3.997606
vt 0.000000 0.000000
vt 1.000000 0.000000
vt 1.000000 1.000000
vt 0.000000 1.000000
vn 0.000000 1.000000 0.000000
vn -1.000000 -0.000000 -0.000000
vn 0.000000 0.000000 -1.000000
vn 1.000000 0.000000 0.000000
vn 0.000000 -0.000000 1.000000
usemtl _brick_wall_2.jpg.001
s 1
f 1/1/1 2/2/1 3/3/1
f 1/1/1 3/3/1 4/4/1
f 1/1/2 4/2/2 5/3/2
f 1/1/2 5/3/2 6/4/2
f 4/1/3 3/2/3 7/3/3
f 4/1/3 7/3/3 5/4/3
f 3/1/4 2/2/4 8/3/4
f 3/1/4 8/3/4 7/4/4
f 2/3/5 1/4/5 6/1/5
f 2/3/5 6/1/5 8/2/5
