# Blender v2.62 (sub 0) OBJ File: 'table_by_leo4.blend'
# www.blender.org
mtllib table_by_leo.mtl
o Mesh_Cube
v 1.960861 -1.251526 0.934598
v 1.960861 -0.305834 0.934598
v 1.960860 -0.305834 1.285059
v 1.960861 -1.251526 1.285058
v 1.610400 -0.305834 1.285058
v 1.610400 -1.251526 1.285058
v 1.610400 -0.305834 0.934598
v 1.610400 -1.251526 0.934597
v 1.960861 -1.251526 -1.253531
v 1.960861 -0.305834 -1.253531
v 1.960860 -0.305834 -0.903070
v 1.960861 -1.251526 -0.903070
v 1.610400 -0.305834 -0.903070
v 1.610400 -1.251526 -0.903070
v 1.610400 -0.305834 -1.253531
v 1.610400 -1.251526 -1.253531
v -1.634964 -1.251526 -1.253531
v -1.634964 -0.305834 -1.253531
v -1.634964 -0.305834 -0.903070
v -1.634964 -1.251526 -0.903070
v -1.985425 -0.305834 -0.903070
v -1.985425 -1.251526 -0.903070
v -1.985425 -0.305834 -1.253531
v -1.985424 -1.251526 -1.253531
v -1.634964 -1.251526 0.934598
v -1.634964 -0.305834 0.934598
v -1.634964 -0.305834 1.285059
v -1.634964 -1.251526 1.285058
v -1.985425 -0.305834 1.285058
v -1.985425 -1.251526 1.285058
v -1.985425 -0.305834 0.934598
v -1.985424 -1.251526 0.934597
v 1.980967 -0.455629 -1.321703
v 2.095039 0.086083 -1.397714
v 2.095037 0.086083 1.411704
v 1.980967 -0.455629 1.335692
v -2.121083 0.086083 1.411703
v -2.007011 -0.455629 1.335692
v -2.121082 0.086083 -1.397714
v -2.007010 -0.455629 -1.321703
v -0.042695 0.086083 -1.320748
v 0.056170 0.086083 -1.279796
v 1.856384 0.086083 -1.252913
v 0.097122 0.086083 -1.180931
v 1.757519 0.086083 -1.211962
v -1.817682 0.086083 -1.223077
v -0.141560 0.086083 -1.279797
v 0.056171 0.086083 -1.082066
v 0.054543 0.086083 -1.072455
v -1.730599 0.086083 -1.072456
v -0.143188 0.086083 -1.072455
v -0.182511 0.086083 -1.180931
v 1.670970 0.086083 -1.072455
v 1.716568 0.086083 -1.113097
v -0.141560 0.086083 -1.082066
v -1.776731 0.086083 -1.124212
v -1.916547 0.086083 -1.264029
v -1.982498 0.086083 -1.236711
v 1.940436 0.086083 -1.218098
v -2.034388 0.086083 1.129594
v -1.993437 0.086083 1.030728
v -2.056364 0.086083 -1.124212
v -1.866111 0.086083 -0.927809
v -1.916547 0.086083 -0.984396
v -2.015412 0.086083 -1.025347
v -1.894572 0.086083 0.989777
v -1.841116 0.086083 0.942132
v -1.841115 0.086083 -0.938163
v -1.993437 0.086083 1.228459
v -2.015412 0.086083 -1.223078
v -1.971262 0.086083 1.237644
v -0.094358 0.086083 1.296293
v -0.135309 0.086083 1.197428
v -1.795707 0.086083 1.228459
v 1.878360 0.086083 1.280525
v 0.004507 0.086083 1.337245
v 1.779495 0.086083 1.239574
v 0.103373 0.086083 1.296293
v 0.144324 0.086083 1.197428
v -0.094358 0.086083 1.098563
v -0.092305 0.086083 1.086445
v 1.690178 0.086083 1.086446
v 0.105425 0.086083 1.086445
v -1.894572 0.086083 1.269410
v -1.706344 0.086083 1.086445
v -1.754755 0.086083 1.129594
v 1.738544 0.086083 1.140709
v 0.103373 0.086083 1.098563
v 1.954852 0.086083 1.248841
v 1.996201 0.086083 -1.113097
v 1.955250 0.086083 -1.014232
v 2.018177 0.086083 1.140709
v 1.827924 0.086083 0.944306
v 1.878360 0.086083 1.000892
v 1.977225 0.086083 1.041844
v 1.856384 0.086083 -0.973280
v 1.815073 0.086083 -0.936459
v 1.815071 0.086083 0.949630
v 1.955250 0.086083 -1.211962
v 1.977225 0.086083 1.239574
v 1.856384 0.008431 -0.973280
v 1.860458 0.000775 -0.974967
v 1.827924 0.061923 0.944306
v 1.860456 0.000775 0.980804
v -0.094358 0.047509 1.098563
v -0.100439 0.000775 1.113244
v -1.736411 0.000775 1.113243
v 0.109454 0.000775 1.113244
v 0.103373 0.047509 1.098563
v 1.714064 0.000775 1.113244
v -1.886501 0.000775 0.982584
v -1.886500 0.000775 -0.950685
v -1.866111 0.039100 -0.927809
v 0.056171 0.055490 -1.082066
v 0.063290 0.000775 -1.099254
v 1.701037 0.000775 -1.099254
v -0.148680 0.000775 -1.099254
v -0.141560 0.055490 -1.082066
v -1.754485 0.000775 -1.099255
v -1.767246 0.000775 -0.968761
v 0.008856 0.000775 1.031935
v 1.729059 0.000775 0.985257
v -0.047044 0.000775 -1.015438
v -1.739120 0.000775 0.980293
v -0.090009 0.000775 1.072887
v -0.145909 0.000775 -1.056390
v 1.799798 0.000775 -0.922844
v 0.051821 0.000775 -1.056390
v 0.107722 0.000775 1.072887
v 1.700933 0.000775 -0.963796
v 1.856384 0.000775 -0.973280
v 0.103373 0.000775 1.098563
v -0.094358 0.000775 1.098563
v 0.056171 0.000775 -1.082066
v -1.866111 0.000775 -0.927809
v -1.837986 0.000775 0.939341
v 1.827924 0.000775 0.944306
v 1.688107 0.000775 1.084123
v -1.726295 0.000775 -1.067626
v -1.698169 0.000775 1.079158
v 1.659982 0.000775 -1.062661
v -0.141560 0.000775 -1.082066
v 1.878360 -0.197155 1.280525
v 1.977225 -0.197155 1.239574
v 2.018177 -0.197155 1.140709
v 1.977225 -0.197155 1.041844
v 1.878360 -0.197155 1.000892
v 1.779495 -0.197155 1.239574
v 1.738544 -0.197155 1.140709
v 1.878360 -0.197155 1.140709
v 1.779495 -0.197155 1.041844
v 1.729059 -0.197155 0.985257
v 1.688107 -0.197155 1.084123
v 1.827924 -0.197155 0.944306
v -1.993437 -0.197155 1.228459
v -2.034388 -0.197155 1.129594
v -1.894572 -0.197155 1.269410
v -1.795707 -0.197155 1.228459
v -1.754755 -0.197155 1.129594
v -1.993437 -0.197155 1.030728
v -1.894572 -0.197155 0.989777
v -1.894572 -0.197155 1.129594
v -1.795707 -0.197155 1.030728
v -1.739120 -0.197155 0.980293
v -1.837986 -0.197155 0.939341
v -1.698169 -0.197155 1.079158
v 0.004507 -0.197155 1.337245
v -0.094358 -0.197155 1.296293
v 0.103373 -0.197155 1.296293
v 0.144324 -0.197155 1.197428
v 0.103373 -0.197155 1.098563
v -0.135309 -0.197155 1.197428
v -0.094358 -0.197155 1.098563
v 0.004507 -0.197155 1.197428
v 0.004507 -0.197155 1.057612
v 0.008856 -0.197155 1.031935
v -0.090009 -0.197155 1.072887
v 0.107722 -0.197155 1.072887
v -0.042695 -0.197155 -1.320748
v 0.056170 -0.197155 -1.279796
v -0.141560 -0.197155 -1.279796
v -0.182511 -0.197155 -1.180931
v -0.141560 -0.197155 -1.082066
v 0.097122 -0.197155 -1.180931
v 0.056170 -0.197155 -1.082066
v -0.042695 -0.197155 -1.180931
v -0.042695 -0.197155 -1.041115
v -0.047044 -0.197155 -1.015438
v 0.051821 -0.197155 -1.056390
v -0.145909 -0.197155 -1.056390
v 1.955250 -0.197155 -1.211962
v 1.996201 -0.197155 -1.113097
v 1.856384 -0.197155 -1.252913
v 1.757519 -0.197155 -1.211962
v 1.716568 -0.197155 -1.113097
v 1.955250 -0.197155 -1.014232
v 1.856384 -0.197155 -0.973280
v 1.856384 -0.197155 -1.113097
v 1.757519 -0.197155 -1.014232
v 1.700933 -0.197155 -0.963796
v 1.799798 -0.197155 -0.922844
v 1.659982 -0.197155 -1.062661
v -1.916547 -0.197155 -1.264029
v -2.015412 -0.197155 -1.223077
v -2.056364 -0.197155 -1.124212
v -2.015412 -0.197155 -1.025347
v -1.916547 -0.197155 -0.984396
v -1.817682 -0.197155 -1.223077
v -1.776731 -0.197155 -1.124212
v -1.916547 -0.197155 -1.124212
v -1.817682 -0.197155 -1.025347
v -1.767246 -0.197155 -0.968761
v -1.726295 -0.197155 -1.067626
v -1.866111 -0.197155 -0.927809
vt 0.000000 0.000000
vt 1.000000 0.000000
vt 1.000000 1.000000
vt 0.000000 1.000000
vt 0.502013 -0.000011
vt 0.502013 0.497987
vt 1.000011 0.497987
vt 1.000011 -0.000011
vt 0.501001 0.001001
vt 0.501001 0.498999
vt 0.998999 0.498999
vt 0.998999 0.001001
vt 0.501001 -0.000011
vt 0.501001 0.497987
vt 0.998999 0.497987
vt 0.998999 -0.000011
vt 0.502013 0.001001
vt 0.502013 0.498999
vt 1.000011 0.498999
vt 1.000011 0.001001
vt 0.981033 0.004797
vt 0.483035 0.004797
vt 0.483035 0.502795
vt 0.981033 0.502795
vt 0.991408 0.003785
vt 0.493410 0.003785
vt 0.493410 0.501783
vt 0.991408 0.501783
vt 0.490626 0.007580
vt 0.490626 0.505578
vt 0.988624 0.505578
vt 0.988624 0.007580
vt 0.071682 0.796100
vt 0.100339 0.809026
vt 0.119152 0.984763
vt 0.017821 0.995752
vt 0.017821 0.589398
vt 0.169525 0.815193
vt 0.147810 0.978631
vt 0.140032 0.606411
vt 0.100339 0.789968
vt 0.238711 0.801184
vt 0.245437 0.800084
vt 0.245437 0.601681
vt 0.245437 0.778108
vt 0.169525 0.784115
vt 0.245437 0.979736
vt 0.216996 0.982886
vt 0.238711 0.779208
vt 0.209217 0.601505
vt 0.111374 0.599341
vt 0.130491 0.589398
vt 0.143515 0.995752
vt 0.087082 0.961035
vt 0.121052 0.951380
vt 0.068852 0.617458
vt 0.015166 0.588770
vt 0.226673 0.613895
vt 0.184834 0.614186
vt 0.102823 0.624877
vt 0.203064 0.965293
vt 0.247407 0.968015
vt 0.247407 0.614050
vt 0.015166 0.995182
vt 0.121052 0.988603
vt 0.102822 0.596273
vt 0.139448 0.995182
vt 0.130126 0.588770
vt 0.016147 0.588415
vt 0.097929 0.775191
vt 0.167987 0.768360
vt 0.145997 0.604661
vt 0.016147 0.996985
vt 0.109103 0.985390
vt 0.068910 0.788188
vt 0.138122 0.978281
vt 0.097929 0.794353
vt 0.167987 0.799608
vt 0.238044 0.782445
vt 0.246631 0.783840
vt 0.246631 0.983029
vt 0.246631 0.805936
vt 0.116978 0.598496
vt 0.246631 0.603475
vt 0.216055 0.600383
vt 0.208179 0.983214
vt 0.238044 0.804541
vt 0.139488 0.588415
vt 0.131555 0.996985
vt 0.098294 0.962470
vt 0.132015 0.952891
vt 0.080197 0.617046
vt 0.016908 0.590968
vt 0.236858 0.614726
vt 0.195327 0.613800
vt 0.113918 0.624407
vt 0.213424 0.966695
vt 0.247442 0.968782
vt 0.247442 0.616521
vt 0.016907 0.994181
vt 0.132015 0.989821
vt 0.113918 0.596029
vt 0.144214 0.994181
vt 0.132340 0.590968
vt 0.972650 0.954974
vt 0.971191 0.953790
vt 0.982843 0.581824
vt 0.987446 0.574030
vt 0.971191 0.588858
vt 0.987447 0.960797
vt 0.606183 0.545974
vt 0.616848 0.554191
vt 0.605302 0.564145
vt 0.283554 0.545974
vt 0.300042 0.564145
vt 0.645707 0.545974
vt 0.962482 0.545974
vt 0.644467 0.564145
vt 0.656372 0.554191
vt 0.943875 0.564145
vt 0.256615 0.575567
vt 0.272036 0.588526
vt 0.272037 0.949259
vt 0.265108 0.949551
vt 0.256615 0.961147
vt 0.635536 0.988685
vt 0.626779 0.984488
vt 0.635853 0.976981
vt 0.958642 0.988685
vt 0.941444 0.976981
vt 0.596012 0.988685
vt 0.278706 0.988685
vt 0.596301 0.976981
vt 0.587254 0.984488
vt 0.296670 0.976981
vt 0.294289 0.952632
vt 0.625696 0.579317
vt 0.946673 0.588027
vt 0.615265 0.961342
vt 0.299537 0.588953
vt 0.607249 0.571676
vt 0.596818 0.968983
vt 0.959872 0.944064
vt 0.633713 0.968983
vt 0.644144 0.571676
vt 0.941425 0.951705
vt 0.970431 0.953475
vt 0.643332 0.566885
vt 0.606437 0.566885
vt 0.634525 0.973774
vt 0.275841 0.944991
vt 0.281089 0.596594
vt 0.965120 0.595668
vt 0.939032 0.569579
vt 0.301930 0.971079
vt 0.307178 0.570506
vt 0.933784 0.970153
vt 0.597629 0.973774
vn -0.382676 -0.000002 -0.923883
vn -0.382682 0.000000 -0.923880
vn -0.382684 -0.000000 -0.923879
vn -0.923877 0.000000 -0.382690
vn -0.923877 0.000000 0.382691
vn -0.382691 0.000000 0.923877
vn 0.923880 0.000000 -0.382682
vn 0.382682 0.000000 -0.923880
vn 0.000000 1.000000 0.000000
vn 0.746502 0.000000 -0.665383
vn 0.746496 -0.000004 -0.665390
vn 0.746509 0.000000 -0.665375
vn 0.746506 0.000002 -0.665379
vn -0.746508 0.000000 0.665376
vn -0.746507 -0.000007 0.665378
vn -0.746501 0.000004 0.665384
vn -0.746521 0.000000 0.665361
vn 0.923879 -0.000000 0.382686
vn 0.382690 0.000000 0.923877
vn 0.382681 0.000000 0.923881
vn 0.923881 0.000000 -0.382680
vn 0.382674 0.000000 -0.923883
vn 0.382684 -0.000001 -0.923879
vn -0.923877 0.000000 -0.382689
vn 0.382682 -0.000000 0.923880
vn 0.923882 -0.000000 0.382677
vn 0.665329 0.000000 0.746550
vn 0.665375 0.000000 0.746509
vn 0.665383 -0.000004 0.746502
vn 0.665365 0.000006 0.746518
vn -0.665390 0.000000 -0.746496
vn -0.665375 0.000000 -0.746509
vn -0.665368 -0.000004 -0.746515
vn -0.665371 0.000007 -0.746513
vn -0.382686 0.000000 0.923878
vn -0.923880 0.000000 0.382682
vn 0.382689 0.000000 -0.923877
vn -0.382686 0.000000 -0.923878
vn -0.923880 0.000000 -0.382682
vn -0.923878 0.000002 0.382686
vn -0.923881 -0.000001 0.382680
vn 0.923878 0.000002 0.382686
vn 0.923880 0.000000 0.382682
vn 0.923881 -0.000001 0.382680
vn -0.000000 1.000000 -0.000001
vn 0.985957 0.000000 0.167001
vn 0.985951 0.000000 0.167037
vn -0.985964 0.000000 -0.166958
vn -0.985957 0.000000 -0.167001
vn 0.382689 -0.000000 0.923877
vn -0.382690 0.000000 0.923877
vn 0.382690 0.000003 0.923877
vn 0.382683 0.000000 0.923880
vn 0.923882 0.000001 0.382678
vn 0.923922 -0.000047 -0.382580
vn 0.923870 0.000015 -0.382707
vn -0.923845 0.000038 -0.382766
vn -0.923877 0.000005 -0.382690
vn -0.923889 -0.000012 -0.382661
vn -0.923877 0.000000 0.382690
vn -0.985950 0.000005 -0.167039
vn -0.985955 0.000000 -0.167010
vn 0.985955 0.000000 0.167010
vn 0.985957 -0.000000 0.167002
vn -0.382690 0.000000 -0.923877
vn 0.382690 0.000000 -0.923877
vn -0.382671 0.000000 0.923885
vn -0.382680 -0.000001 0.923881
vn -0.382679 0.000000 0.923882
vn -0.382687 -0.000000 -0.923878
vn -0.382597 0.000052 -0.923915
vn -0.382660 -0.000039 -0.923889
vn -0.665374 0.000000 -0.746511
vn 0.665377 0.000000 0.746507
vn 0.665374 -0.000000 0.746510
vn 0.665373 0.000001 0.746511
vn 0.382675 -0.000003 0.923883
vn 0.382686 0.000000 0.923878
vn 0.923877 -0.000000 0.382689
vn 0.923878 0.000001 0.382686
vn 0.923877 0.000000 -0.382690
vn 0.382683 0.000000 -0.923880
vn -0.382689 0.000000 0.923877
vn -0.746489 0.000000 0.665398
vn -0.746524 0.000009 0.665359
vn -0.746502 -0.000008 0.665383
vn 0.746515 0.000000 -0.665369
vn 0.746517 0.000005 -0.665367
vn 0.746521 -0.000004 -0.665362
vn 0.746510 0.000000 -0.665374
vn -0.923880 0.000000 -0.382681
vn -0.382692 0.000000 -0.923876
vn -0.382689 -0.000000 -0.923877
vn 1.000000 0.000000 0.000003
vn 1.000000 0.000001 0.000000
vn -0.000003 -0.000001 1.000000
vn 0.000000 0.000000 1.000000
vn -1.000000 0.000000 0.000000
vn 0.000003 -0.000000 -1.000000
vn 0.000000 0.000001 -1.000000
vn 0.000000 -0.000000 -1.000000
vn 1.000000 0.000000 0.000000
vn -1.000000 -0.000001 -0.000003
vn 0.978540 -0.206058 0.000001
vn 0.978541 -0.206055 0.000000
vn -0.000000 -0.138957 0.990298
vn 0.000000 -0.138955 0.990299
vn -0.978540 -0.206058 -0.000000
vn 0.000000 -0.138955 -0.990299
vn 0.000000 1.000000 -0.000003
vn 0.000000 1.000000 0.000001
vn -0.882794 -0.469760 0.000002
vn -0.882843 -0.469669 -0.000001
vn -0.882834 -0.469686 -0.000001
vn -0.882841 -0.469673 -0.000001
vn 0.000123 -0.299714 -0.954029
vn 0.000000 -0.299703 -0.954032
vn 0.000001 -0.299694 -0.954035
vn 0.000001 -0.299703 -0.954032
vn -0.000052 -0.299706 -0.954032
vn 0.000000 -0.299694 -0.954036
vn 0.882836 -0.469681 0.000000
vn 0.882841 -0.469673 -0.000000
vn 0.882833 -0.469688 0.000000
vn -0.000266 -0.299728 0.954025
vn 0.000000 -0.299703 0.954032
vn -0.000001 -0.299703 0.954033
vn 0.000111 -0.299710 0.954030
usemtl _pooltable.png
s off
f 143/1/1 89/2/1 100/3/1
f 143/1/2 100/3/2 144/4/2
f 143/1/3 75/2/3 89/3/3
f 92/1/4 145/2/4 144/3/4
f 92/1/4 144/3/4 100/4/4
f 95/1/5 146/2/5 145/3/5
f 95/1/5 145/3/5 92/4/5
f 94/1/6 147/2/6 146/3/6
f 94/1/6 146/3/6 95/4/6
f 87/1/7 77/2/7 148/3/7
f 87/1/7 148/3/7 149/4/7
f 77/1/8 75/2/8 143/3/8
f 77/1/8 143/3/8 148/4/8
f 150/1/9 143/2/9 144/3/9
f 150/1/9 144/2/9 145/3/9
f 150/1/9 145/2/9 146/3/9
f 150/1/9 146/2/9 147/3/9
f 150/1/9 147/2/9 151/3/9
f 150/1/9 151/2/9 149/3/9
f 150/1/9 149/2/9 148/3/9
f 150/1/9 148/2/9 143/3/9
f 151/1/9 152/2/9 153/3/9
f 151/1/9 153/3/9 149/4/9
f 154/1/9 152/2/9 151/3/9
f 154/1/9 151/3/9 147/4/9
f 149/1/10 153/2/10 138/3/10
f 149/1/11 138/3/11 110/4/11
f 110/1/12 87/2/12 149/3/12
f 110/1/13 82/2/13 87/3/13
f 94/1/14 93/2/14 103/3/14
f 94/1/15 103/3/15 104/4/15
f 137/1/14 154/2/14 147/3/14
f 137/1/16 147/3/16 104/4/16
f 104/1/17 147/2/17 94/3/17
f 138/1/18 153/2/18 152/3/18
f 138/1/18 152/3/18 122/4/18
f 93/1/19 98/2/19 103/3/19
f 154/1/20 137/2/20 122/3/20
f 154/1/20 122/3/20 152/4/20
f 69/1/21 155/2/21 156/3/21
f 69/1/21 156/3/21 60/4/21
f 155/1/22 69/2/22 71/3/22
f 155/1/23 71/3/23 84/4/23
f 84/1/8 157/2/8 155/3/8
f 74/1/2 158/2/2 157/3/2
f 74/1/2 157/3/2 84/4/2
f 86/1/24 159/2/24 158/3/24
f 86/1/24 158/3/24 74/4/24
f 66/1/25 61/2/25 160/3/25
f 66/1/25 160/3/25 161/4/25
f 61/1/26 60/2/26 156/3/26
f 61/1/26 156/3/26 160/4/26
f 162/1/9 156/2/9 155/3/9
f 162/1/9 155/2/9 157/3/9
f 162/1/9 157/2/9 158/3/9
f 162/1/9 158/2/9 159/3/9
f 162/1/9 159/2/9 163/3/9
f 162/1/9 163/2/9 161/3/9
f 162/1/9 161/2/9 160/3/9
f 162/1/9 160/2/9 156/3/9
f 163/1/9 164/2/9 165/3/9
f 163/1/9 165/3/9 161/4/9
f 166/1/9 164/2/9 163/3/9
f 166/1/9 163/3/9 159/4/9
f 161/1/27 111/2/27 66/3/27
f 161/1/28 165/2/28 136/3/28
f 161/1/29 136/3/29 111/4/29
f 111/1/30 67/2/30 66/3/30
f 86/1/31 107/2/31 159/3/31
f 140/1/32 166/2/32 159/3/32
f 140/1/33 159/3/33 107/4/33
f 86/1/34 85/2/34 107/3/34
f 136/1/35 165/2/35 164/3/35
f 136/1/35 164/3/35 124/4/35
f 124/1/36 164/2/36 166/3/36
f 124/1/36 166/3/36 140/4/36
f 76/1/37 167/2/37 168/3/37
f 76/1/37 168/3/37 72/4/37
f 78/1/38 169/2/38 167/3/38
f 78/1/38 167/3/38 76/4/38
f 79/1/39 170/2/39 169/3/39
f 79/1/39 169/3/39 78/4/39
f 170/1/36 79/2/36 109/3/36
f 170/1/40 109/3/40 108/4/40
f 132/1/36 171/2/36 170/3/36
f 132/1/41 170/3/41 108/4/41
f 79/1/36 88/2/36 109/3/36
f 172/1/42 106/2/42 105/3/42
f 172/1/43 105/3/43 73/4/43
f 172/1/43 173/2/43 133/3/43
f 172/1/44 133/3/44 106/4/44
f 105/1/43 80/2/43 73/3/43
f 73/1/7 72/2/7 168/3/7
f 73/1/7 168/3/7 172/4/7
f 174/1/9 168/2/9 167/3/9
f 174/1/9 167/2/9 169/3/9
f 174/1/9 169/2/9 170/3/9
f 174/1/9 170/2/9 171/3/9
f 174/1/9 171/2/9 175/3/9
f 174/1/9 175/2/9 173/3/9
f 174/1/9 173/2/9 172/3/9
f 174/1/9 172/2/9 168/3/9
f 175/1/9 176/2/9 177/3/9
f 175/1/45 177/3/45 173/4/45
f 178/1/9 176/2/9 175/3/9
f 178/1/45 175/3/45 171/4/45
f 173/1/46 177/2/46 125/3/46
f 173/1/46 125/3/46 133/4/46
f 105/1/47 81/2/47 80/3/47
f 88/1/48 83/2/48 109/3/48
f 129/1/49 178/2/49 171/3/49
f 129/1/49 171/3/49 132/4/49
f 121/1/50 125/2/50 177/3/50
f 121/1/50 177/3/50 176/4/50
f 121/1/35 176/2/35 178/3/35
f 121/1/35 178/3/35 129/4/35
f 41/1/51 179/2/51 180/3/51
f 41/1/51 180/3/51 42/4/51
f 47/1/52 181/2/52 179/3/52
f 47/1/53 179/3/53 41/4/53
f 52/1/43 182/2/43 181/3/43
f 52/1/54 181/3/54 47/4/54
f 182/1/7 55/2/7 118/3/7
f 182/1/55 118/3/55 117/4/55
f 142/1/7 183/2/7 182/3/7
f 142/1/56 182/3/56 117/4/56
f 182/1/7 52/2/7 55/3/7
f 184/1/57 115/2/57 114/3/57
f 184/1/39 114/3/39 48/4/39
f 184/1/58 185/2/58 134/3/58
f 184/1/59 134/3/59 115/4/59
f 48/1/39 44/2/39 184/3/39
f 44/1/60 42/2/60 180/3/60
f 44/1/60 180/3/60 184/4/60
f 186/1/9 180/2/9 179/3/9
f 186/1/9 179/2/9 181/3/9
f 186/1/9 181/2/9 182/3/9
f 186/1/9 182/2/9 183/3/9
f 186/1/9 183/2/9 187/3/9
f 186/1/9 187/2/9 185/3/9
f 186/1/9 185/2/9 184/3/9
f 186/1/9 184/2/9 180/3/9
f 187/1/9 188/2/9 189/3/9
f 187/1/9 189/3/9 185/4/9
f 190/1/9 188/2/9 187/3/9
f 190/1/9 187/3/9 183/4/9
f 185/1/49 189/2/49 128/3/49
f 185/1/61 128/3/61 134/4/61
f 114/1/62 49/2/62 48/3/62
f 55/1/63 51/2/63 118/3/63
f 126/1/64 190/2/64 183/3/64
f 126/1/64 183/3/64 142/4/64
f 123/1/65 128/2/65 189/3/65
f 123/1/65 189/3/65 188/4/65
f 123/1/66 188/2/66 190/3/66
f 123/1/66 190/3/66 126/4/66
f 99/1/36 191/2/36 192/3/36
f 99/1/36 192/3/36 90/4/36
f 191/1/67 99/2/67 59/3/67
f 191/1/68 59/3/68 43/4/68
f 43/1/69 193/2/69 191/3/69
f 45/1/25 194/2/25 193/3/25
f 45/1/25 193/3/25 43/4/25
f 54/1/43 195/2/43 194/3/43
f 54/1/43 194/3/43 45/4/43
f 196/1/70 197/2/70 131/3/70
f 196/1/71 131/3/71 102/4/71
f 102/1/72 101/2/72 91/3/72
f 102/1/65 91/3/65 196/4/65
f 101/1/70 96/2/70 91/3/70
f 91/1/39 90/2/39 192/3/39
f 91/1/39 192/3/39 196/4/39
f 198/1/9 192/2/9 191/3/9
f 198/1/9 191/2/9 193/3/9
f 198/1/9 193/2/9 194/3/9
f 198/1/9 194/2/9 195/3/9
f 198/1/9 195/2/9 199/3/9
f 198/1/9 199/2/9 197/3/9
f 198/1/9 197/2/9 196/3/9
f 198/1/9 196/2/9 192/3/9
f 199/1/9 200/2/9 201/3/9
f 199/1/9 201/3/9 197/4/9
f 202/1/9 200/2/9 199/3/9
f 202/1/9 199/3/9 195/4/9
f 197/1/32 201/2/32 127/3/32
f 197/1/32 127/3/32 131/4/32
f 101/1/73 97/2/73 96/3/73
f 54/1/74 116/2/74 195/3/74
f 141/1/28 202/2/28 195/3/28
f 141/1/75 195/3/75 116/4/75
f 54/1/76 53/2/76 116/3/76
f 130/1/37 127/2/37 201/3/37
f 130/1/37 201/3/37 200/4/37
f 130/1/7 200/2/7 202/3/7
f 130/1/7 202/3/7 141/4/7
f 203/1/77 58/2/77 70/3/77
f 203/1/52 70/3/52 204/4/52
f 203/1/78 57/2/78 58/3/78
f 62/1/79 205/2/79 204/3/79
f 62/1/80 204/3/80 70/4/80
f 65/1/81 206/2/81 205/3/81
f 65/1/81 205/3/81 62/4/81
f 64/1/82 207/2/82 206/3/82
f 64/1/82 206/3/82 65/4/82
f 56/1/36 46/2/36 208/3/36
f 56/1/36 208/3/36 209/4/36
f 46/1/83 57/2/83 203/3/83
f 46/1/83 203/3/83 208/4/83
f 210/1/9 203/2/9 204/3/9
f 210/1/9 204/2/9 205/3/9
f 210/1/9 205/2/9 206/3/9
f 210/1/9 206/2/9 207/3/9
f 210/1/9 207/2/9 211/3/9
f 210/1/9 211/2/9 209/3/9
f 210/1/9 209/2/9 208/3/9
f 210/1/9 208/2/9 203/3/9
f 211/1/9 212/2/9 213/3/9
f 211/1/9 213/3/9 209/4/9
f 214/1/9 212/2/9 211/3/9
f 214/1/9 211/3/9 207/4/9
f 209/1/84 119/2/84 56/3/84
f 209/1/14 213/2/14 139/3/14
f 209/1/85 139/3/85 119/4/85
f 119/1/86 50/2/86 56/3/86
f 64/1/87 63/2/87 113/3/87
f 64/1/88 113/3/88 112/4/88
f 135/1/87 214/2/87 207/3/87
f 135/1/89 207/3/89 112/4/89
f 112/1/90 207/2/90 64/3/90
f 120/1/91 139/2/91 213/3/91
f 120/1/91 213/3/91 212/4/91
f 63/1/92 68/2/92 113/3/92
f 214/1/93 135/2/93 120/3/93
f 214/1/93 120/3/93 212/4/93
usemtl _pooltable.png_pooltable.png
f 1/5/94 2/6/94 3/7/94
f 1/5/95 3/7/95 4/8/95
f 4/9/96 3/10/96 5/11/96
f 4/9/97 5/11/97 6/12/97
f 6/13/98 5/14/98 7/15/98
f 6/13/98 7/15/98 8/16/98
f 2/17/99 1/18/99 8/19/99
f 2/17/100 8/19/100 7/20/100
f 9/5/94 10/6/94 11/7/94
f 9/5/95 11/7/95 12/8/95
f 12/9/97 11/10/97 13/11/97
f 12/9/97 13/11/97 14/12/97
f 14/13/98 13/14/98 15/15/98
f 14/13/98 15/15/98 16/16/98
f 10/17/101 9/18/101 16/19/101
f 10/17/101 16/19/101 15/20/101
f 17/5/102 18/6/102 19/7/102
f 17/5/102 19/7/102 20/8/102
f 20/9/97 19/10/97 21/11/97
f 20/9/97 21/11/97 22/12/97
f 22/13/98 21/14/98 23/15/98
f 22/13/103 23/15/103 24/16/103
f 18/17/101 17/18/101 24/19/101
f 18/17/101 24/19/101 23/20/101
f 25/5/102 26/6/102 27/7/102
f 25/5/102 27/7/102 28/8/102
f 28/9/96 27/10/96 29/11/96
f 28/9/97 29/11/97 30/12/97
f 30/13/98 29/14/98 31/15/98
f 30/13/103 31/15/103 32/16/103
f 26/17/99 25/18/99 32/19/99
f 26/17/100 32/19/100 31/20/100
f 33/21/104 34/22/104 35/23/104
f 33/21/105 35/23/105 36/24/105
f 36/25/106 35/26/106 37/27/106
f 36/25/107 37/27/107 38/28/107
f 37/29/108 39/30/108 40/31/108
f 37/29/108 40/31/108 38/32/108
f 34/12/109 33/9/109 40/10/109
f 34/12/109 40/10/109 39/11/109
f 41/33/9 42/34/9 43/35/9
f 43/35/9 34/36/9 39/37/9
f 43/35/110 39/37/110 41/33/110
f 44/38/9 45/39/9 43/35/9
f 44/38/9 43/35/9 42/34/9
f 46/40/9 47/41/9 41/33/9
f 46/40/9 41/33/9 39/37/9
f 48/42/9 49/43/9 45/39/9
f 48/42/9 45/39/9 44/38/9
f 46/40/9 50/44/9 51/45/9
f 46/40/9 51/45/9 52/46/9
f 53/47/9 54/48/9 45/39/9
f 53/47/9 45/39/9 49/43/9
f 51/45/9 55/49/9 52/46/9
f 46/40/9 56/50/9 50/44/9
f 46/40/9 52/46/9 47/41/9
f 39/37/9 57/51/9 46/40/9
f 39/37/9 58/52/9 57/51/9
f 43/35/9 59/53/9 34/36/9
f 60/54/9 61/55/9 62/56/9
f 60/54/9 62/56/9 39/57/9
f 63/58/9 64/59/9 65/60/9
f 63/58/9 65/60/9 61/55/9
f 61/55/9 66/61/9 67/62/9
f 61/55/9 67/62/9 68/63/9
f 61/55/9 65/60/9 62/56/9
f 39/57/9 37/64/9 60/54/9
f 61/55/9 68/63/9 63/58/9
f 37/64/9 69/65/9 60/54/9
f 62/56/9 70/66/9 39/57/9
f 37/64/9 71/67/9 69/65/9
f 70/66/9 58/68/9 39/57/9
f 37/69/9 72/70/9 73/71/9
f 37/69/9 73/71/9 74/72/9
f 37/69/9 35/73/9 75/74/9
f 37/69/111 75/74/111 76/75/111
f 77/76/9 78/77/9 76/75/9
f 77/76/9 76/75/9 75/74/9
f 77/76/9 79/78/9 78/77/9
f 80/79/9 81/80/9 74/72/9
f 80/79/9 74/72/9 73/71/9
f 77/76/9 82/81/9 83/82/9
f 77/76/9 83/82/9 79/78/9
f 74/72/9 84/83/9 37/69/9
f 85/84/9 86/85/9 74/72/9
f 85/84/9 74/72/9 81/80/9
f 77/76/9 87/86/9 82/81/9
f 83/82/9 88/87/9 79/78/9
f 37/69/9 76/75/9 72/70/9
f 84/83/9 71/88/9 37/69/9
f 35/73/9 89/89/9 75/74/9
f 90/90/9 91/91/9 92/92/9
f 90/90/9 92/92/9 35/93/9
f 93/94/9 94/95/9 95/96/9
f 93/94/9 95/96/9 91/91/9
f 91/91/9 96/97/9 97/98/9
f 91/91/9 97/98/9 98/99/9
f 91/91/9 95/96/9 92/92/9
f 91/91/9 98/99/9 93/94/9
f 35/93/9 34/100/9 90/90/9
f 34/100/9 99/101/9 90/90/9
f 92/92/9 100/102/9 35/93/9
f 34/100/9 59/103/9 99/101/9
f 100/102/9 89/104/9 35/93/9
f 101/105/112 102/106/112 103/107/112
f 101/105/113 103/107/113 98/108/113
f 102/106/114 104/109/114 103/107/114
f 98/108/115 97/110/115 101/105/115
f 81/111/116 105/112/116 106/113/116
f 81/111/117 106/113/117 85/114/117
f 106/113/118 107/115/118 85/114/118
f 83/116/119 82/117/119 108/118/119
f 83/116/120 108/118/120 109/119/120
f 82/117/121 110/120/121 108/118/121
f 67/121/122 111/122/122 112/123/122
f 67/121/123 112/123/123 113/124/123
f 113/124/124 68/125/124 67/121/124
f 49/126/125 114/127/125 115/128/125
f 49/126/126 115/128/126 53/129/126
f 115/128/126 116/130/126 53/129/126
f 51/131/127 50/132/127 117/133/127
f 51/131/128 117/133/128 118/134/128
f 50/132/127 119/135/127 117/133/127
f 120/136/9 121/137/9 122/138/9
f 120/136/9 122/138/9 123/139/9
f 120/136/9 124/140/9 125/141/9
f 120/136/9 125/141/9 121/137/9
f 123/139/9 126/142/9 120/136/9
f 127/143/9 128/144/9 123/139/9
f 127/143/9 123/139/9 122/138/9
f 121/137/9 129/145/9 122/138/9
f 130/146/9 115/128/9 128/144/9
f 130/146/9 128/144/9 127/143/9
f 102/106/9 131/147/9 127/143/9
f 102/106/9 127/143/9 122/138/9
f 129/145/9 132/148/9 108/118/9
f 129/145/9 108/118/9 122/138/9
f 106/113/9 133/149/9 125/141/9
f 106/113/9 125/141/9 124/140/9
f 115/128/9 134/150/9 128/144/9
f 120/136/9 135/151/9 124/140/9
f 112/123/9 136/152/9 124/140/9
f 112/123/9 124/140/9 135/151/9
f 137/153/9 104/109/9 102/106/9
f 108/118/9 138/154/9 122/138/9
f 117/133/9 139/155/9 120/136/9
f 117/133/9 120/136/9 126/142/9
f 124/140/9 140/156/9 106/113/9
f 140/156/9 107/115/9 106/113/9
f 130/146/9 141/157/9 115/128/9
f 108/118/9 110/120/9 138/154/9
f 141/157/9 116/130/9 115/128/9
f 117/133/9 119/135/9 139/155/9
f 112/123/9 111/122/9 136/152/9
f 122/138/9 137/153/9 102/106/9
f 126/142/9 142/158/9 117/133/9
